<svg xmlns="http://www.w3.org/2000/svg" version="1.1" xmlns:xlink="http://www.w3.org/1999/xlink" xmlns:svgjs="http://svgjs.com/svgjs" width="1440" height="560" preserveAspectRatio="none" viewBox="0 0 1440 560"><g mask="url(&quot;#SvgjsMask1096&quot;)" fill="none"><rect width="1440" height="560" x="0" y="0" fill="#0e2a47"></rect><circle r="8.015" cx="72.105" cy="374.405" filter="url(#SvgjsFilter1097)" fill="rgba(51, 121, 194, 0.58)"></circle><circle r="8.695" cx="575.0250000000001" cy="280.635" filter="url(#SvgjsFilter1097)" fill="rgba(51, 121, 194, 0.58)"></circle><circle r="5.605" cx="1147.505" cy="5.695" filter="url(#SvgjsFilter1097)" fill="rgba(51, 121, 194, 0.58)"></circle><circle r="9.285" cx="483.665" cy="49.815" filter="url(#SvgjsFilter1097)" fill="rgba(51, 121, 194, 0.58)"></circle><circle r="4.92" cx="1223.76" cy="299.91" filter="url(#SvgjsFilter1097)" fill="rgba(51, 121, 194, 0.58)"></circle><circle r="6.715" cx="741.235" cy="24.125" filter="url(#SvgjsFilter1097)" fill="rgba(51, 121, 194, 0.58)"></circle><circle r="6.065" cx="25.245" cy="268.995" filter="url(#SvgjsFilter1097)" fill="rgba(51, 121, 194, 0.58)"></circle><circle r="5.115" cx="213.13500000000002" cy="319.445" filter="url(#SvgjsFilter1097)" fill="rgba(51, 121, 194, 0.58)"></circle><circle r="7.68" cx="776.93" cy="258.19" filter="url(#SvgjsFilter1097)" fill="rgba(51, 121, 194, 0.58)"></circle><circle r="5.22" cx="708.59" cy="257.38" filter="url(#SvgjsFilter1097)" fill="rgba(51, 121, 194, 0.58)"></circle><circle r="5.405" cx="754.525" cy="340.835" filter="url(#SvgjsFilter1097)" fill="rgba(51, 121, 194, 0.58)"></circle><circle r="8.905" cx="1144.535" cy="311.575" filter="url(#SvgjsFilter1097)" fill="rgba(51, 121, 194, 0.58)"></circle><circle r="5.51" cx="1097.6" cy="411.94" filter="url(#SvgjsFilter1097)" fill="rgba(51, 121, 194, 0.58)"></circle><circle r="5.595" cx="690.615" cy="22.154999999999998" filter="url(#SvgjsFilter1097)" fill="rgba(51, 121, 194, 0.58)"></circle><circle r="6.84" cx="378.21" cy="184.41" filter="url(#SvgjsFilter1097)" fill="rgba(51, 121, 194, 0.58)"></circle><circle r="8.055" cx="448.745" cy="65.955" filter="url(#SvgjsFilter1097)" fill="rgba(51, 121, 194, 0.58)"></circle><circle r="5.915" cx="1293.455" cy="55.144999999999996" filter="url(#SvgjsFilter1097)" fill="rgba(51, 121, 194, 0.58)"></circle><circle r="6.98" cx="1043.39" cy="71.15" filter="url(#SvgjsFilter1097)" fill="rgba(51, 121, 194, 0.58)"></circle><circle r="8.845" cx="486.795" cy="450.57500000000005" filter="url(#SvgjsFilter1097)" fill="rgba(51, 121, 194, 0.58)"></circle><circle r="5.075" cx="420.435" cy="530.475" filter="url(#SvgjsFilter1097)" fill="rgba(51, 121, 194, 0.58)"></circle><path d="M91.3 130.9L114.8 109.3 126.4 110.1 118.5 117.3C117.4 117.9 117.6 119.1 118.1 120.2 118.9 120.7 120.3 120.9 120.8 120.2L132 110.3 143.4 110.7 137.1 120.3 122.5 123.4C122.5 123.4 122.1 123.5 122.1 123.5 121.4 123.9 121.1 125 121.1 125.9 121.6 126.9 122.4 127.5 123.6 127.3L134.1 125 127.8 134.5 96.8 141.6C96.8 141.6 96.2 141.4 96.2 141.4 95.5 141.8 95.2 142.9 95.2 143.8 95.4 145 96.7 145.7 97.7 145.2L124.8 139.2 117.5 151.2 105.4 153.8C105.4 153.8 105.4 153.8 105 154 104.3 154.4 103.8 155.1 103.8 156 104.3 157.1 105.2 157.9 106.5 157.7L114.5 155.8 109.1 164.5C108.2 165.4 108.8 166.5 109.5 167 110.4 167.9 111.6 167.7 112.3 166.4L117.9 158.1 119.3 166C119.9 167 120.8 167.9 121.8 167.4 123.1 167.2 123.6 166.5 123.4 165.2L120.7 153.1 128.3 141.5 134.4 169C134.4 169.9 135.7 170.6 136.9 170.4 137.6 170 138.5 169.1 138.3 167.9L131.3 136.8 137.6 127.3 139.9 137.8C140 139 141.1 139.4 142.4 139.2 143.3 139.2 144 137.9 144 137L140.5 122.6 146.7 112.6 152 122.9 147.5 137C147.2 138 147.7 139.1 148.8 139.4 149.5 140 151 139.2 151.3 138.2L154.6 127.9 159.9 138.2 149.9 168.6C149.6 169.7 150.1 170.7 151.2 171.1 152.3 171.4 153.4 170.9 153.7 169.8L162.5 143.2 168.7 155.3 164.9 167.1C164.6 168.2 165.2 169.3 166.2 169.6 167.3 170 168.4 169.4 168.7 168.3L171.5 160.6 176.1 169.5C176.6 170.5 177.7 170.9 178.8 170.3 179.8 169.8 180.2 168.7 179.6 167.6L175 158.8 182.6 161.2C183.7 161.5 184.7 161 185.1 159.9S184.9 157.7 183.8 157.4L172.5 153.8 166 141.4 192.4 149.8C193.5 150.1 194.6 149.5 194.9 148.5 195.3 147.4 194.7 146.3 193.6 146L163.4 136.4 158.1 126.1 168.4 129.3C169.4 129.7 170.5 129.1 170.8 128 171.2 127 170.6 125.9 169.6 125.6L155.5 121.1 150.4 111.2 161.5 111.7 171.7 122.7C172.4 123.2 173.8 123.4 174.3 122.6 175.2 121.7 175.2 120.8 174.7 119.8L167.4 111.8 178.5 112.4 200.1 135.9C201 136.8 201.9 136.7 203 136.2 203.9 135.3 203.7 134 203.3 133.3L184.4 112.5 198.4 113.4 206.5 122.2C207.1 123.3 208.3 123.1 209.4 122.5 209.9 121.8 210.1 120.3 209.2 119.5L203.9 113.6 213.9 113.9C215 114.2 215.9 113.3 216.1 111.9 216 111 215.1 110.1 214.2 110.1L204 109.5 210.2 104.1C211.1 103.2 210.9 101.9 210.2 101.4 209.6 100.3 208.7 100.3 208 100.7 207.7 100.9 207.7 100.9 207.3 101.1L198.5 109.2 184.5 108.4 205 89.6C206.1 89.1 205.9 87.8 205.3 86.8 204.6 86.3 203.7 86.3 203 86.6 202.7 86.8 202.7 86.8 202.7 86.8L178.6 108.3 167.5 107.7 175.5 100.4C176.4 99.5 176.3 98.6 175.8 97.6 175.1 97 174 96.7 173.3 97.1 172.9 97.2 172.9 97.2 172.6 97.4L161.6 107.6 150.5 107 156.5 97.7 170.9 94.2C172.2 94 172.9 92.8 172.8 91.9 172.3 90.8 171.4 89.9 170.3 90.5L159.8 92.8 165.6 83 197.1 76.2C198 76.1 198.7 74.9 198.7 74 198.2 72.9 197.3 72 196 72.2L168.9 78.2 176.4 66.6 188.2 64.1C189.5 63.9 190.2 62.7 189.6 61.6 189.6 60.7 188.7 59.8 187.4 60L179.4 61.9 184.8 53.3C185.4 52.5 185.2 51.3 184.3 50.4 183.7 50.2 182.8 50.2 182.1 50.6 182.1 50.6 181.8 50.8 181.4 51L176 59.6 174.1 51.6C174.1 50.7 172.8 50 171.9 50 171.6 50.2 171.6 50.2 171.6 50.2 170.5 50.8 170.1 51.8 170.5 52.6L173 64.3 165.7 76.2 159.5 48.8C159 47.7 158.3 47.2 157 47.4 157 47.4 156.7 47.6 156.7 47.6 156 47.9 155.4 48.7 155.6 49.9L162.3 81.1 156.4 90.5 154.1 80C153.5 78.9 152.6 78 151.6 78.6 151.4 78.2 151 78.4 151 78.4 150.3 78.8 150 79.9 150 80.7L153.4 95.2 147.1 104.8 141.9 94.8 146.4 80.8C146.7 79.7 146 78.3 144.9 78 144 78 143 78.5 142.4 79.2L139.4 89.8 134 79.5 143.6 49.4C144 48.3 143.4 47.2 142.3 46.9 141.3 46.5 140.2 47.1 139.9 48.2L131.5 74.6 125 62.1 128.6 50.8C129 49.7 128.4 48.7 127.3 48.3S125.2 48.5 124.9 49.6L122.5 57.2 117.9 48.3C117.3 47.2 116.2 46.9 115.2 47.4 114.1 48 113.8 49 114.3 50.1L118.9 59 111 56.8C110.5 56.6 109.9 56.4 109.6 56.6 109.2 56.8 108.7 57.5 108.5 58.1 108.2 59.1 108.7 60.2 109.8 60.6L121.5 64 127.9 76.4 101.1 68.2C100.6 68 100.1 67.8 99.7 68 99.3 68.2 98.8 68.9 98.7 69.5 98.3 70.6 98.9 71.6 99.9 72L130.5 81.4 135.8 91.7 125.4 88.1C124.8 87.9 124.1 88.3 123.8 88.4 123.4 88.6 123.1 88.8 122.9 89.4 122.6 90.4 123.3 91.9 124.2 91.8L138.4 96.7 143.5 106.6 132.1 106.2 122.3 95.1C121.5 94.6 120.5 94.2 119.8 94.6 119.4 94.8 119.4 94.8 119.6 95.1 118.5 95.7 118.4 97.1 119.3 98L126.5 105.9 115.1 105.6 93.6 81.5C92.9 81 92 81 91.3 81.4 90.9 81.6 90.9 81.6 90.9 81.6 90.1 82.5 89.7 83.6 90.6 84.4L109.5 105.3 95.6 104.4 87.4 95.6C86.5 94.7 85.6 94.7 84.9 95.1 84.9 95.1 84.5 95.3 84.5 95.3 83.6 96.2 83.8 97.4 84.2 98.1L90 104.1 79.8 103.5C79.4 103.7 79.1 103.9 78.7 104.1 78.4 104.3 77.9 105 77.7 105.5 77.9 106.8 78.4 107.9 79.7 107.7L89.9 108.2 83.7 113.7C82.8 114.6 83 115.8 83.4 116.6 84.3 117.4 85.5 117.2 86.6 116.7L95.4 108.5 109.2 109 88.7 127.8C87.8 128.7 87.7 130.1 88.4 130.6 89.3 131.5 90.4 131.8 91.3 130.9Z" fill="rgba(51, 121, 194, 0.58)"></path><path d="M140.2 562.5L122.1 544.5 122.2 535.2 128.3 541.3C128.8 542.1 129.8 541.9 130.6 541.4 131 540.8 131.1 539.7 130.5 539.3L122.3 530.7 122.2 521.6 130 526.2 133 537.8C133 537.8 133.2 538.1 133.2 538.1 133.5 538.7 134.4 538.9 135.1 538.9 135.9 538.4 136.3 537.8 136.1 536.8L133.9 528.5 141.8 533.2 148.5 557.7C148.5 557.7 148.4 558.1 148.4 558.1 148.7 558.7 149.6 558.9 150.3 558.9 151.3 558.7 151.8 557.7 151.3 556.8L145.6 535.4 155.4 540.8 158 550.4C158 550.4 158 550.4 158.1 550.7 158.5 551.2 159.1 551.6 159.8 551.6 160.6 551.1 161.3 550.4 161.1 549.4L159.3 543 166.4 547C167.1 547.7 168 547.2 168.4 546.6 169 545.9 168.8 544.9 167.8 544.4L161 540.2 167.2 538.8C168 538.4 168.7 537.6 168.2 536.8 168 535.8 167.4 535.4 166.4 535.6L156.8 538.1 147.3 532.5 169.1 526.7C169.8 526.6 170.3 525.6 170.1 524.6 169.8 524.1 169 523.4 168 523.6L143.5 530.3 135.6 525.6 143.9 523.4C144.9 523.2 145.1 522.4 144.9 521.4 144.9 520.6 143.9 520.1 143.2 520.2L131.7 523.4 123.6 518.9 131.6 514.3 143 517.3C143.9 517.6 144.7 517.1 144.9 516.2 145.3 515.6 144.7 514.5 143.8 514.3L135.5 512 143.6 507.4 168.2 514.3C169.1 514.5 169.9 514 170.1 513.1 170.4 512.3 169.9 511.4 169 511.2L147.4 505.2 156.9 499.7 166.5 502.3C167.4 502.6 168.2 502.1 168.4 501.2 168.7 500.3 168.2 499.5 167.3 499.3L161 497.3 168 493.3C168.8 492.9 169 492 168.5 491.2 168.1 490.3 167.2 490.1 166.4 490.6L159.4 494.6 161.1 488.4C161.3 487.6 160.8 486.7 160 486.5S158.3 486.7 158 487.6L155.5 496.8 145.8 502.4 151.6 481C151.8 480.1 151.4 479.3 150.5 479 149.6 478.8 148.8 479.3 148.5 480.1L142 504.6 133.9 509.2 136.2 500.9C136.4 500.1 135.9 499.2 135 499 134.2 498.8 133.3 499.2 133.1 500.1L130 511.5 122.3 516 122.3 507.1 130.7 498.5C131.1 497.9 131.2 496.8 130.6 496.4 129.8 495.7 129.1 495.8 128.3 496.2L122.2 502.3 122.2 493.4 140.2 475.3C140.9 474.6 140.9 473.9 140.4 473 139.6 472.4 138.6 472.6 138.1 472.9L122.1 488.7 122.3 477.5 129.1 470.7C129.9 470.2 129.7 469.2 129.2 468.4 128.6 468 127.5 467.9 126.8 468.7L122.3 473.1 122.1 465.1C122.4 464.2 121.6 463.5 120.5 463.4 119.8 463.5 119.1 464.2 119.1 465L119 473.1 114.5 468.4C113.7 467.7 112.7 467.9 112.3 468.5 111.5 469 111.5 469.7 111.8 470.3 112 470.5 112 470.5 112.2 470.8L119 477.6 118.8 488.8 103.1 473.1C102.6 472.2 101.6 472.4 100.8 472.9 100.4 473.5 100.5 474.2 100.8 474.8 100.9 475.1 100.9 475.1 100.9 475.1L118.9 493.5 118.9 502.4 112.8 496.3C112 495.6 111.3 495.7 110.5 496.1 110.1 496.7 109.9 497.6 110.2 498.2 110.3 498.4 110.3 498.4 110.5 498.7L119 507.1 119 516 111.3 511.6 108 500.2C107.8 499.2 106.8 498.7 106.1 498.7 105.2 499.2 104.6 499.9 105 500.8L107.2 509.1 99.2 504.8 92.6 479.9C92.6 479.1 91.5 478.6 90.8 478.7 90 479.1 89.3 479.9 89.5 480.9L95.2 502.3 85.7 496.7 83.3 487.4C83.1 486.4 82.1 485.9 81.2 486.4 80.5 486.4 79.9 487.2 80.1 488.2L81.9 494.5 74.8 490.5C74.2 490.1 73.2 490.3 72.5 491.1 72.4 491.5 72.4 492.2 72.7 492.8 72.7 492.8 72.9 493.1 73.1 493.3L80.2 497.4 73.8 499.2C73.1 499.2 72.6 500.2 72.6 501 72.8 501.2 72.8 501.2 72.8 501.2 73.3 502.1 74.2 502.3 74.7 502L84 499.6 93.8 505 72.1 510.9C71.2 511.4 70.9 512 71.1 512.9 71.1 512.9 71.2 513.2 71.2 513.2 71.5 513.8 72.1 514.2 73.1 514L97.8 507.5 105.5 511.9 97.2 514.1C96.4 514.6 95.7 515.4 96.2 516.2 95.9 516.4 96.1 516.6 96.1 516.6 96.4 517.2 97.3 517.4 98 517.4L109.4 514.1 117.3 518.8 109.5 523.3 98.1 520.2C97.3 520 96.2 520.6 95.9 521.5 96 522.2 96.5 523.1 97 523.5L105.6 525.5 97.6 530.2 73.1 523.6C72.2 523.3 71.4 523.8 71.2 524.7 70.9 525.6 71.4 526.4 72.3 526.6L93.7 532.4 84 538 74.8 535.5C73.9 535.3 73.1 535.8 72.9 536.6S73.1 538.3 74 538.6L80.1 540.2 73.2 544.2C72.3 544.7 72.1 545.6 72.6 546.4 73.1 547.2 73.9 547.5 74.8 547L81.7 543 80.2 549.4C80.1 549.8 80 550.3 80.1 550.5 80.3 550.8 80.9 551.2 81.3 551.3 82.2 551.6 83 551.1 83.3 550.2L85.6 540.8 95.3 535.2 89.7 556.9C89.6 557.3 89.5 557.7 89.6 558 89.8 558.3 90.4 558.7 90.8 558.8 91.7 559 92.5 558.6 92.8 557.7L99.2 532.9 107.2 528.3 104.7 536.8C104.6 537.2 104.9 537.8 105.1 538 105.2 538.3 105.4 538.6 105.8 538.7 106.7 538.9 107.8 538.3 107.8 537.6L111.1 526.1 118.9 521.6 119 530.8 110.4 539C110 539.6 109.8 540.5 110.1 541 110.3 541.3 110.3 541.3 110.6 541.2 111 542 112.2 542.1 112.9 541.3L119 535.2 119.1 544.4 100.6 562.4C100.2 563 100.3 563.7 100.6 564.2 100.8 564.5 100.8 564.5 100.8 564.5 101.5 565.2 102.4 565.4 103.1 564.7L119 548.8 118.8 560 112.1 566.9C111.4 567.6 111.4 568.3 111.8 568.9 111.8 568.9 111.9 569.2 111.9 569.2 112.7 569.8 113.7 569.6 114.2 569.3L118.8 564.5 118.7 572.6C118.9 572.9 119 573.2 119.2 573.5 119.4 573.8 120 574.1 120.4 574.3 121.4 574.1 122.2 573.6 122 572.6L122.1 564.4 126.7 569.2C127.4 569.8 128.4 569.6 129 569.3 129.7 568.6 129.5 567.6 129 566.7L122.1 560 122.1 548.9 137.7 564.6C138.5 565.3 139.7 565.4 140 564.8 140.7 564 141 563.2 140.2 562.5Z" fill="rgba(51, 121, 194, 0.58)"></path><path d="M855.7 522.6L838 472.6 858.7 430 885.2 469.1 874.9 521.2C874.9 521.2 874.9 521.9 874.9 521.9 875 523.1 876.4 524.3 877.7 524.9 879.7 525.4 881.5 524 881.4 522L890.2 476.5 903.2 495.4 899.5 515.6C899.5 515.6 899.5 516.2 899.5 516.2 899.6 517.5 901 518.7 902.3 519.2 904.3 519.7 906.1 518.3 906 516.4L908.8 502.7 918.2 516.8C918.9 518 921.5 518.5 922.8 517.8 924.6 517 924.4 514.4 923.7 513.2L914.3 499.1 928 502C930 502.5 931.8 501.1 931.7 499.2 932.2 497.2 930.8 495.4 928.8 495.5L908.7 491.8 896.4 472.8 942 481.7C943.9 482.2 945.7 480.8 945.6 478.9 946.1 476.9 944.7 475.1 942.8 475.3L890.7 464.9 864.1 425.8 912 422.3 952.4 457.2C953.7 458.4 955.7 458.3 956.8 456.9 958 455.5 957.9 453.6 956.5 452.4L920.9 421.6 943.9 420 959 433C960.3 434.2 962.3 434.1 963.4 432.7 964.6 431.3 964.5 429.4 963.1 428.2L952.8 419.3 970.7 418C972.7 418.5 973.8 416.5 973.7 414.6 973.5 412.7 972.2 411.5 970.3 411.7L953.7 412.9 962.5 402.6C963.7 401.2 963.6 399.3 962.2 398.1S958.9 397.1 957.8 398.4L944.7 413.5 921.7 415.2 952.5 379.6C953.7 378.2 953.6 376.3 952.2 375.1 950.8 373.9 948.9 374.1 947.7 375.4L912.8 415.8 865.6 419.2 886.2 376.7 935.1 359.7C936.9 358.9 937.4 356.9 937.3 355 936.5 353.1 934.5 352.6 932.6 352.8L888.8 368.1 898.9 347.5 918.3 341C920.2 340.2 920.7 338.2 920.5 336.3 919.8 334.5 917.8 334 916.5 334.1L903.4 338.9 910.6 323.6C911.2 322.3 911 319.7 909 319.2 907.1 318.7 905.1 318.8 904.6 320.8L897.4 336.1 892.6 323C891.8 321.1 889.9 320.6 888.6 320.7 887.4 321.4 886.2 322.8 886.3 324.1 886.3 324.1 886.3 324.7 886.3 324.7L892.9 344.1 882.8 364.7 867.4 320.9C866.7 319.1 864.7 318.6 863.4 318.7 862.2 319.4 861 320.8 861.1 322 861.1 322 861.1 322.7 861.1 322.7L878.9 372.7 858.2 415.3 831.7 376.1 842 324.1C842.5 322.1 841.1 320.3 839.2 320.4 837.2 319.9 835.4 321.3 835.5 323.2L826.6 368.8 813.7 349.8 817.4 329.7C817.9 327.7 816.5 325.9 814.5 326 812.6 325.5 810.8 327 810.9 328.9L808 342.6 798.7 328.5C798 327.2 795.4 326.8 794.1 327.5 792.9 328.2 792.3 329.6 792.4 330.8 792.5 331.5 792.5 332.1 793.2 332.7L802.6 346.8 788.9 343.9C786.9 343.4 785.1 344.9 785.2 346.8 785.2 346.8 785.3 347.4 785.3 347.4 785.4 348.7 786.8 349.9 788.1 350.4L808.2 354.1 821.2 373 775.6 364.2C773.6 363.7 771.8 365.1 772 367 772 367 772 367.6 772 367.6 772.1 368.9 773.5 370.1 774.8 370.6L826.9 381 853.4 420.1 806.2 423.5 765.8 388.6C764.4 387.4 762.5 387.6 761.4 388.9 760.2 390.3 760.3 392.2 761.7 393.4L796.6 424.2 773.7 425.9 758.6 412.9C757.2 411.7 755.3 411.8 754.1 413.2S753.1 416.5 754.4 417.7L764.7 426.5 748.1 427.7C746.2 427.9 745 429.2 745.2 431.2 745.3 433.1 746.7 434.3 748.6 434.1L765.2 432.9 756.3 443.2C755.7 443.9 755.1 444.6 755.2 445.8S756 447.7 756.7 448.3C758 449.5 759.9 449.3 761.1 448L774.2 432.9 797.1 431.3 766.3 466.8C765.8 467.5 765.2 468.2 765.3 469.5 765.3 470.1 766 471.4 766.7 472 768.1 473.1 770 473 771.2 471.6L806.1 431.2 853.4 427.8 832.7 470.4 782.6 488.1C781.4 488.9 780.2 490.2 780.3 491.5 780.3 491.5 780.4 492.1 780.4 492.1 781.1 494 783.1 494.5 784.4 494.4L828.2 479.1 818.1 499.7 798.7 506.2C797.5 506.9 796.3 508.3 796.4 509.6 796.4 509.6 796.4 510.2 796.4 510.2 797.2 512.1 799.2 512.6 800.5 512.5L813.6 507.7 806.3 523C806.4 523.6 805.8 524.3 805.8 524.9 805.9 526.2 806.7 527.5 808 528 810 528.5 811.9 528.4 812.4 526.4L819.6 511.1 824.4 524.2C825.2 526.1 827.1 526.6 828.4 526.5 830.3 525.7 830.8 523.8 830.7 522.5L824.2 503.1 834.2 482.5 849.6 526.3C850.4 528.1 852.3 528.6 853.6 528.5 855.4 526.5 856.5 524.5 855.7 522.6Z" fill="rgba(51, 121, 194, 0.58)"></path><path d="M645.5 489.2L628.9 483.5 637.5 475.4C638.5 474.6 638.7 472.8 637.8 471.3 636.5 470.4 634.7 470.2 633.7 471L622.2 481.4 606.8 476.1 630.4 455.1C631.8 453.7 632.1 451.9 630.7 451.1 629.8 449.5 628.1 449.3 626.7 450.8L600.6 473.9 586.5 469.4 579.5 436 589.1 427.1 624.3 439.2C624.8 439.1 625.4 439 625.9 438.9 626.5 438.8 627.4 438 627.9 437.3 628.6 435.5 627.7 433.9 626 433.7L593.9 422.7 606 412.1 622.6 417.3C622.7 417.8 623.2 417.7 623.8 417.6 624.9 417.4 625.9 416.6 626.2 415.4 626.5 414.2 625.6 412.7 624.3 411.8L610.8 407.7 625.8 394.3C626.8 393.5 627 391.8 626.1 390.2 624.8 389.4 623 389.2 622 389.9L608.1 402.6 605.7 391.1C605.3 389.4 603.5 388.7 602.4 388.9 600.7 389.2 599.3 390.7 599.6 392.3L602.7 407.1 590.6 417.6 584.2 386.9C583.9 385.3 582.6 384.4 580.9 384.8 579.3 385.1 578.4 386.4 578.7 388.1L585.8 422.1 575.8 431.6 543.2 420.6 540.6 408 567.1 384.2C568.6 383.3 568.7 381 567.4 380.1 566.5 378.6 564.8 379 563.3 379.9L539.2 401.5 535.9 385.6 548 375C549 374.2 549.1 371.9 548.3 371S545.2 369.9 543.7 370.8L534.5 379 530.5 359.8C530.2 358.1 528.3 357.4 526.7 357.7 525.6 358 524.2 359.4 524.5 361L528.5 380.2 516.3 376.5C515.1 376.2 513.4 376.5 512.7 378.4 512.3 379.6 513.3 381.7 514.5 382L529.9 386.8 533.2 402.7 502.4 392.5C500.7 392.3 499 392.6 498.3 394.5 498 395.7 499 397.8 500.2 398.1L534.5 409.3 537.2 421.9 511.6 444.9 498.6 440.2 491.6 406.2C491.2 404.6 489.9 403.7 488.2 404 486.6 404.4 485.2 405.8 485.5 407.5L491.9 438.2 476.6 433.3 473.5 418.5C473.2 416.9 471.9 416 470.2 416.4 468.6 416.7 467.7 418 468.1 419.7L470.4 431.2 452.6 425.2C451.4 424.9 449.3 425.9 449 427.1 448.8 428.8 449.1 430.5 450.9 430.7L469.4 437.1 459.2 446.1C458.4 447.4 458.2 449.2 459 450.2 459.7 451.2 460.9 451.5 462 451.2 462 451.2 462.6 451.1 463 450.5L476.1 439.2 491.4 444 466.4 466.9C464.9 467.8 464.7 469.6 466.1 471 466.8 471.4 467.5 471.9 468.6 471.6 469.1 471.5 469.7 471.4 470.2 471.3L497.6 446.1 509.9 450.4 516.9 483.9 505.7 493.6 472.6 482.8C470.7 482 469.2 482.9 469 484.7 468.1 486 469 487.5 470.9 488.3L500.9 498.1 488.9 509.1 474.2 504.2C473 503.9 471.5 504.8 470.6 506.1 470.4 507.9 470.7 509.5 472.5 509.7L483.6 513.7 470.6 525.5C469.1 526.4 469.4 528.1 470.3 529.6 471 530 472.2 530.4 473.3 530.1 473.3 530.1 473.8 530 474.4 529.9L488.4 517.3 491.2 531C491.4 532.1 492.9 533.5 494.5 533.2 496.2 532.8 496.9 530.9 496.7 529.8L493.1 512.8 505.1 501.8 512.1 535.2C512.4 536.9 514.3 537.6 516 537.3S518.5 535.6 518.1 534L510.5 497.2 520.6 488.2 553.2 499.2 556.2 513.5 529.1 537.4C528.3 538.7 528.1 540.5 529 542 529.6 542.4 530.8 542.8 531.9 542.5 532.5 542.4 533 542.3 533.5 541.6L557.6 520 560.9 535.9 548.9 547C547.9 547.8 547.7 549.5 548.6 551.1 549.9 551.9 551.7 552.2 552.6 551.4L562.2 542.5 565.9 560.1C566.1 561.2 568.1 562.5 569.2 562.2 570.8 561.9 572.1 559.9 571.9 558.8L568.3 541.3 580.1 545.7C580.6 545.6 581.2 545.4 581.7 545.3 582.8 545.1 583.8 544.3 584.2 543.7 584.4 541.9 583.5 540.4 582.2 539.5L566.9 534.7 563.6 518.8 594.3 529C596.2 529.7 597.7 528.8 598 527.6 598.8 525.8 597.9 524.2 596.6 523.4L562.2 512.2 559.3 497.9 584.8 474.9 597.7 479.1 605.3 515.8C605.6 517.5 607 518.3 608.6 518 610.3 517.7 611.1 516.3 610.8 514.7L603.8 481.2 619.3 486.6 622.8 503.6C623 504.7 625 506 626.6 505.7 628.3 505.3 629 503.5 628.8 502.4L626 488.6 643.8 494.7C644.4 494.5 644.4 494.5 644.9 494.4 646 494.2 647 493.4 647.4 492.8 647.6 491 646.7 489.5 645.5 489.2ZM557.9 491.4L554.9 493.7 551.9 492.6 525.4 483.8 522.4 482.7 521.7 479.5 516.1 452.6 515.4 449.3 517.8 447.1 538.5 428.5 540.9 426.3 544.5 427.2 570.4 436.1 574.1 437.1 574.7 440.4 580.3 467.3 581 470.5 578.1 472.9 557.9 491.4Z" fill="rgba(51, 121, 194, 0.58)"></path><path d="M1272.7 358.6L1274.5 336.3 1285.9 343.5C1287.1 344.4 1289.1 344.1 1290.5 342.7 1291.1 341 1290.8 339 1289.1 338.4L1275.1 328.9 1275.8 311.4 1304.9 331.3C1306.6 331.9 1308.6 331.6 1309.5 330.5 1310.6 328.5 1310.3 326.5 1308.6 325.9L1276.4 304 1278.2 277.4 1301.6 297.2 1300 266.6 1322.3 281.3 1320.1 320.2C1319.5 320.5 1319.8 321.1 1320.1 321.7 1320.7 322.8 1321.8 323.7 1323.2 323.7 1324.7 323.7 1326.1 322.3 1326.7 320.5L1328.6 285.3 1342.8 295.4 1341.9 312.3C1341.6 313.2 1341.9 313.7 1342.2 314.3 1342.4 314.9 1343.6 315.8 1345 315.8 1346.4 315.8 1347.9 314.3 1347.9 312.9L1349.1 299.5 1367.9 311.6C1369.4 313 1371.1 312.2 1372.5 310.7 1373.4 309.6 1373.1 307.6 1371.1 306.4L1352.8 294 1364.9 288.1C1366.6 287.2 1366.9 285 1366.3 283.8 1365.5 282.1 1363.8 281.5 1362.1 282.4L1346.6 290 1332.3 279.9 1363.3 264.6C1365 263.8 1365.6 262 1364.7 260.3 1364.2 259.2 1362.2 258 1360.5 258.9L1326 275.9 1303.8 261.2 1332.2 250.7 1305.3 236.9 1329.4 225 1361.4 246.3C1363.4 247.4 1365.1 246.6 1366 245.5 1366.8 244.3 1366.5 242.3 1365.1 240.9L1335.7 221.8 1351.2 214.2 1365.8 223.4C1367.2 224.8 1369.2 224.6 1370.4 222.6 1371.2 221.4 1371 219.4 1369 218.3L1358.1 210.8 1378.2 200.9C1379.9 200 1380.5 198.3 1379.6 196.6S1377.1 194.3 1375.4 195.1L1355.3 205 1355.9 191.9C1356.2 189.6 1354.8 188.2 1353.4 188.1 1351.1 187.8 1349.6 189.3 1349.9 191.3L1348.4 208.4 1332.9 216.1 1335.6 181.2C1335.4 179.2 1333.9 177.7 1332.5 177.7 1330.2 177.4 1328.8 178.9 1329.1 180.9L1326.6 219.2 1302.5 231.1 1307.8 201.4 1282.2 217.6 1284.1 191 1318.5 174C1320.2 173.1 1320.5 170.8 1320 169.7 1319.1 167.9 1317.4 167.4 1315.7 168.2L1284.1 183.8 1285.3 166.1 1300.8 158.4C1302.6 157.6 1303.1 155.8 1302.3 154.1 1301.7 153 1299.7 151.8 1298 152.7L1285.9 158.6 1287.2 136.6C1287.5 134.3 1286.1 132.9 1284.1 133.1 1282.6 133.1 1280.9 134 1281.2 136L1279.4 158.3 1268 151.1C1266.8 150.2 1264.8 150.5 1263.9 151.7 1263.1 152.8 1263.1 154.2 1263.4 154.8 1263.6 155.4 1263.9 155.9 1264.8 156.2L1278.8 165.7 1278.1 183.2 1249 163.3C1247.3 162.7 1245.3 163 1244.4 164.2 1243.6 165.3 1243.5 166.7 1244.1 167.9 1244.4 168.4 1244.4 168.4 1245.3 168.7L1277.5 190.6 1275.7 217.3 1252.3 197.4 1253.8 228 1231.6 213.3 1233.8 174.4C1233.8 173 1232.9 171.3 1230.6 171 1229.2 170.9 1227.8 172.4 1227.2 174.1L1225.3 209.3 1211.1 199.2 1212 182.3C1212.6 180.6 1211.1 179.2 1208.9 178.9 1207.4 178.9 1206 180.3 1205.4 182L1204.8 195.2 1185.9 183C1184.5 181.6 1182.8 182.5 1181.4 183.9 1181.1 184.7 1181.1 186.2 1181.3 186.7 1181.6 187.3 1181.9 187.9 1182.8 188.2L1201 200.6 1189 206.5C1187.3 207.4 1187 209.7 1187.5 210.8L1187.5 210.8C1188.4 212.5 1190.1 213.1 1191.8 212.3L1207.3 204.6 1221.6 214.7 1190.6 230C1188.9 230.9 1188.3 232.6 1189.1 234.3S1191.7 236.6 1193.4 235.7L1227.8 218.7 1250.1 233.4 1221.7 243.9 1248.6 257.8 1224.5 269.7 1192.5 248.3C1190.5 247.2 1188.8 248 1187.9 249.2 1187 250.3 1187.3 252.3 1188.8 253.8L1217.6 273.1 1202.6 280.4 1188.1 271.2C1186.7 269.8 1184.7 270.1 1183.5 272.1 1182.6 273.2 1182.9 275.2 1184.3 276.6L1195.8 283.8 1175.7 293.8C1174 294.6 1173.4 296.3 1174.2 298.1S1176.8 300.4 1178.5 299.5L1198.6 289.6 1198 302.7C1197.7 303.6 1198 304.2 1198.2 304.8 1198.8 305.9 1199.7 306.2 1200.5 306.5 1202.8 306.8 1204.2 305.4 1204 303.3L1205.5 286.2 1221 278.5 1218.2 313.4C1218.5 314 1218.8 314.6 1219.1 315.2 1219.6 316.3 1220.5 316.6 1221.4 316.9 1223.7 317.2 1225.1 315.8 1224.8 313.8L1227.3 275.4 1251.4 263.5 1246.1 293.2 1271.6 277.1 1269.8 303.7 1235.4 320.7C1233.6 321.5 1233.4 323.8 1233.9 325 1234.8 326.7 1236.5 327.3 1238.2 326.4L1269.2 311.1 1268.5 328.6 1253 336.2C1251.3 337.1 1250.7 338.8 1251.6 340.5S1254.2 342.8 1255.9 342L1267.9 336 1266.7 358C1266.4 358.9 1266.7 359.5 1267 360 1267.2 360.6 1268.4 361.5 1269.8 361.5 1271.2 361.5 1273 360.6 1272.7 358.6ZM1254.7 280.4L1259.1 256.1 1237.2 244.8 1260.7 236.1 1259.4 211.7 1278.5 227.3 1299.1 214.2 1294.7 238.5 1316.7 249.8 1293.8 258.3 1294.5 282.9 1276 267.1 1254.7 280.4Z" fill="rgba(51, 121, 194, 0.58)"></path><path d="M1042.8 468.3L1061 487.5 1061 494.8 1046.7 502.6 1040.3 498.9 1034.1 473C1034 472.7 1034 472.7 1033.8 472.5 1033.5 471.9 1032.9 471.5 1031.9 471.7 1031.1 472.1 1030.7 472.7 1030.9 473.7L1036.3 496.3 1026.5 490.4 1024 480.4C1024 480.4 1023.8 480.2 1023.8 480.2 1023.5 479.6 1022.9 479.2 1021.9 479.4 1021.2 479.4 1020.7 480.4 1020.9 481.4L1022.2 487.9 1015.1 483.5C1014.5 483.1 1013.5 483.3 1012.8 484S1012.7 485.9 1013.5 486.6L1020.5 490.7 1014.1 492.4C1013.1 492.6 1012.6 493.6 1012.8 494.6 1013.1 495.2 1013.8 495.9 1014.8 495.7L1024.7 493.2 1034.7 499.4 1012.2 504.8C1011.2 505 1010.6 506 1010.7 506.7 1011.1 507.6 1011.9 508.3 1012.9 508.1L1038.5 501.6 1045.1 505.7 1044.7 521.6 1038 525.3 1012.5 518.1C1011.7 517.9 1010.8 518.3 1010.6 519.2S1010.8 520.9 1011.6 521.2L1034.1 527.5 1023.7 533.1 1014.1 530.4C1013.3 530.1 1012.4 530.6 1011.9 531.6S1012.1 533.3 1013 533.6L1019.8 535.3 1012.2 539.5C1011.4 539.9 1011.3 541.1 1011.7 541.9 1012.2 542.8 1013 543 1013.9 542.5L1021.5 538.4 1019.6 544.9C1019 545.9 1019.5 546.8 1020.6 546.9 1021.5 547.1 1022.4 546.7 1022.6 545.8L1025.4 536.2 1035.8 530.5 1029 552.8C1028.8 553.7 1029.4 554.8 1030.3 555.1S1032 554.9 1032.2 554L1039.7 528.4 1046.4 524.7 1060.2 533.2 1059.9 540.6 1040.7 558.8C1040 559.6 1040.2 560.6 1040.7 561.4 1041.4 562.1 1042.4 561.9 1043.3 561.5L1060 545.4 1059.7 556.8 1052.2 563.8C1051.5 564.6 1051.7 565.6 1052.2 566.4 1052.8 566.8 1053.9 566.9 1054.6 566.2L1059.4 561.7 1059.3 570.2C1059.4 570.9 1060.1 571.6 1061 571.8 1062 571.6 1062.7 570.9 1062.6 570.2L1062.7 561.7 1067.7 566.7C1068.2 567.1 1069.4 567.2 1069.8 566.6 1070.6 566.1 1070.6 565.4 1070.2 564.6 1070.2 564.6 1070 564.3 1070 564.3L1063 556.8 1063.3 545.4 1079.4 562.1C1080.1 562.8 1081 563 1081.7 562.3 1082.4 561.5 1082.3 560.8 1082 560.3 1081.9 560 1081.9 560 1081.9 560L1063.2 540.7 1063.5 533.2 1077.8 525.3 1084 529.3 1090.6 555.2C1090.6 555.9 1091.6 556.5 1092.3 556.4 1093.3 556.3 1093.9 555.2 1093.7 554.2L1088.2 531.7 1098.1 537.6 1100.6 547.5C1100.8 548.5 1101.5 549.2 1102.3 548.8 1103.3 548.6 1103.9 547.5 1103.8 546.8L1102 540.2 1109.2 544.6C1110.1 544.9 1111.1 544.7 1111.8 544 1111.9 543.5 1111.9 542.8 1111.5 542.2 1111.4 542 1111.4 542 1111 541.8L1103.8 537.4 1110.4 535.6C1111.4 535.4 1111.7 534.5 1111.7 533.8 1111.5 533.5 1111.5 533.5 1111.3 533.2 1111 532.7 1110.4 532.3 1109.7 532.3L1099.8 534.8 1090 528.9 1112.5 523.4C1113.4 523 1114.1 522.2 1113.6 521.4 1113.7 521 1113.7 521 1113.6 520.7 1113.3 520.1 1112.4 519.9 1111.7 519.9L1085.7 526.5 1079.6 522.6 1079.8 506.4 1086.3 502.8 1111.9 510.3C1112.8 510.5 1113.9 509.9 1114.1 509.1S1113.8 507.1 1112.9 506.8L1090.5 500.5 1100.6 495 1110.4 497.6C1111.3 497.9 1112.1 497.4 1112.4 496.5 1112.6 495.7 1112.2 494.8 1111.3 494.6L1104.8 492.7 1112.4 488.5C1112.9 488.2 1113.4 487.2 1113 486.3 1112.5 485.5 1111.2 485.1 1110.7 485.4L1103.1 489.6 1105 483.1C1105.1 482.6 1105.2 482.2 1105.1 481.9 1104.8 481.3 1104.3 481.2 1103.9 481.1 1103 480.8 1102.2 481.3 1101.9 482.2L1098.9 491.9 1088.8 497.4 1095.5 475.1C1095.6 474.7 1095.5 474.4 1095.2 473.8 1095 473.6 1094.9 473.3 1094.4 473.2 1093.6 472.9 1092.4 473.5 1092.2 474.4L1084.6 499.7 1078.1 503.3 1064.5 495.1 1064.3 487.5 1083.8 469.1C1084.2 468.5 1084.5 467.7 1084.2 467.1 1084 466.8 1084 466.8 1083.7 467 1083.3 466.1 1082.1 466 1081.4 466.8L1064.7 482.9 1064.9 471.1 1072.3 464.1C1072.7 463.5 1072.7 462.8 1072.4 462.3 1072.4 462.3 1072.2 462 1072.2 462 1071.8 461.1 1070.6 461 1069.9 461.8L1065 466.7 1065.1 458.2C1065.2 457.8 1065 457.5 1064.9 457.2 1064.6 456.7 1064 456.3 1063.7 456.4 1062.6 456.3 1061.9 457.1 1061.6 457.9L1061.5 466.4 1057 461.6C1056.3 460.9 1055.1 460.8 1054.5 461.5 1054.1 462.1 1054 463.2 1054.5 463.7L1061.6 471.1 1061.3 482.6 1045.2 465.9C1044.4 465.2 1043.4 465.4 1042.6 465.8 1042.2 466.4 1042.1 467.6 1042.8 468.3ZM1050.1 504.8L1061 498.8 1062.7 497.9 1064.3 498.8 1074.8 505.1 1076.5 506.3 1076.4 508.2 1076.2 520.4 1076.1 522.3 1074.4 523.2 1063.5 529.2 1061.8 530.1 1060.2 529.2 1049.8 522.8 1048.2 521.9 1048.1 519.8 1048.3 507.6 1048.4 505.7 1050.1 504.8Z" fill="rgba(51, 121, 194, 0.58)"></path><path d="M175.5 353.9L149.8 347.6 137.6 327.3 161.3 326.9 180.2 345.5C180.2 345.5 180.5 345.7 180.5 345.7 181.1 346 181.9 345.7 182.5 345.3 183.3 344.7 183.2 343.5 182.3 343L165.7 326.8 177.2 326.6 184.6 333.7C184.6 333.7 184.9 333.8 184.9 333.8 185.4 334.2 186.3 333.9 186.9 333.5 187.6 332.8 187.6 331.7 186.7 331.2L181.8 326.3 190.2 326.2C190.9 326.2 191.8 325.3 191.9 324.6 192.1 323.6 190.9 322.9 190.2 322.9L181.8 323 186.7 318C187.5 317.3 187.4 316.2 186.5 315.7 185.8 315 184.7 315.1 184.2 315.9L177.2 323.3 165.9 323.3 182.1 306.6C182.8 306 182.7 304.8 181.9 304.3 181.2 303.6 180 303.7 179.6 304.5L161 323.5 137.3 323.9 149 302.9 174.7 295.6C175.5 295.3 176 294.5 175.8 293.6 175.5 292.8 174.7 292.3 173.8 292.5L151.2 299 156.8 288.9 166.3 286.2C167.2 285.9 167.7 285.1 167.4 284.2 167.2 283.4 166.3 282.9 165.5 283.1L158.9 285 163.3 277.2C164 276.5 163.5 275.5 162.7 275 161.8 274.5 161 274.8 160.5 275.6L156.5 282.9 154.6 276.4C154.3 275.5 153.5 275 152.6 275.3S151.3 276.4 151.5 277.2L154.3 286.8 148.7 296.9 142.2 274.2C142 273.4 141.1 272.9 140.3 273.2 139.4 273.4 138.9 274.2 139.2 275.1L146.5 300.8 135 321.5 122.8 301.2 129.1 276.1C129.3 275.1 128.6 274.4 127.8 273.9 126.8 273.7 126 274.4 125.6 275.2L120 297.8 114.1 287.9 116.7 278C116.9 277 116.2 276.3 115.4 275.8 114.4 275.6 113.6 276.3 113.3 276.9L111.7 283.7 107.3 276.4C106.9 275.9 105.8 275.2 105 275.9 104.3 276.6 103.8 277.4 104.5 278.2L108.9 285.4 102.1 283.8C101.1 283.6 100.4 284.3 100.1 284.9 100 285.6 100.3 286.5 100.8 286.8 100.8 286.8 101.1 286.9 101.1 286.9L111 289.5 116.9 299.4 94.4 293.8C93.4 293.6 92.6 294.3 92.3 294.8 92.3 295.6 92.5 296.4 93.1 296.7 93.1 296.7 93.4 296.9 93.4 296.9L119.2 303.2 131.3 323.5 107.7 323.9 88.7 305.3C88 304.5 86.9 304.6 86.4 305.5 85.7 306.2 85.8 307.3 86.6 307.8L103.2 324 91.8 324.2 84.3 317.1C83.7 316.4 82.5 316.5 82 317.3 81.3 318 81.4 319.1 82.2 319.6L87.2 324.6 78.7 324.6C78 324.6 77.1 325.5 77.1 326.3 77 327 77.4 327.6 78 327.9 78.3 328 78.6 328.2 79 328.1L87.4 328 82.5 332.9C81.8 333.6 81.8 334.8 82.7 335.2 82.7 335.2 83 335.4 83 335.4 83.5 335.7 84.4 335.5 85 335.1L92 327.6 103.5 327.4 87.3 344C86.6 344.7 86.7 345.9 87.5 346.3 87.5 346.3 87.8 346.5 87.8 346.5 88.3 346.8 89.2 346.6 89.8 346.2L108.4 327.2 132 326.8 120.5 347.5 94.9 354.8C94 355.1 93.5 355.9 93.8 356.8 94 357.7 94.9 358.1 95.7 357.9L118.2 351.7 112.6 361.8 103 364.5C102.2 364.7 101.7 365.6 101.9 366.5S103 367.8 103.9 367.5L110.4 365.7 106.4 373C105.9 373.8 106.2 374.7 107 375.1 107.8 375.6 108.7 375.3 109.2 374.5L113.2 367.2 115.1 373.8C115.2 374.2 115.3 374.6 115.9 374.9S116.9 375.1 117.3 375C118.2 374.8 118.7 373.9 118.4 373.1L115.7 363.5 121.3 353.4 127.7 376C127.9 376.5 128 376.9 128.5 377.2 128.8 377.4 129.5 377.4 130 377.3 130.8 377 131.3 376.2 131.1 375.3L123.7 349.6 135.2 329 147.4 349.3 141.1 375C141.1 375.8 141.3 376.6 141.9 376.9 141.9 376.9 142.2 377.1 142.2 377.1 143.2 377.3 143.9 376.6 144.2 376L149.8 353.5 155.7 363.4 153.1 373.3C153 374 153.3 374.9 153.8 375.2 153.8 375.2 154.1 375.3 154.1 375.3 155.1 375.5 155.9 374.8 156.2 374.3L157.8 367.5 162.2 374.7C162.5 374.8 162.6 375.3 162.9 375.4 163.4 375.7 164.1 375.8 164.7 375.4 165.5 374.7 165.9 373.8 165.3 373.1L160.8 365.9 167.7 367.5C168.6 367.7 169.4 367 169.7 366.4 169.9 365.4 169.2 364.7 168.6 364.4L158.7 361.8 152.9 351.9 175.4 357.5C176.4 357.7 177.1 357 177.4 356.4 177.1 355.1 176.5 354.1 175.5 353.9Z" fill="rgba(51, 121, 194, 0.58)"></path><path d="M481.7 56.3L499 84.7 491.8 113.3 470.5 92.8 470.2 59.6C470.2 59.6 470 59.2 470 59.2 469.8 58.5 468.8 57.9 468 57.8 466.7 57.7 465.8 58.8 466.1 60L466.5 89 456.2 79 455.8 66.2C455.8 66.2 455.7 65.8 455.7 65.8 455.5 65.1 454.5 64.5 453.6 64.4 452.4 64.3 451.4 65.4 451.8 66.6L451.8 75.3 444.2 67.9C443.6 67.2 442 67.3 441.3 67.9 440.3 68.6 440.7 70.1 441.3 70.8L448.9 78.2 440.1 78.2C438.9 78.2 437.9 79.3 438.3 80.4 438.2 81.7 439.3 82.6 440.4 82.3L453.3 81.9 463.2 92 434.2 92.4C432.9 92.4 432 93.5 432.3 94.6 432.3 95.9 433.4 96.8 434.5 96.5L467.7 96.1 489 116.6 460.2 124.9 431 108.7C430 108.2 428.8 108.5 428.3 109.5 427.7 110.5 428.1 111.6 429.1 112.2L454.8 126.5 440.9 130.4 430.1 124.4C429.1 123.8 427.9 124.2 427.4 125.2 426.8 126.1 427.1 127.3 428.1 127.8L435.6 132 424.8 135.1C423.5 135 423.1 136.4 423.4 137.5 423.7 138.7 424.7 139.2 425.9 138.9L435.9 136 431.8 143.5C431.2 144.4 431.6 145.6 432.5 146.1S434.7 146.4 435.2 145.4L441.3 134.5 455.1 130.5 440.9 156.2C440.3 157.2 440.6 158.4 441.6 158.9 442.6 159.5 443.8 159.2 444.3 158.2L460.5 129 488.9 120.8 481.8 149.5 454.1 166.2C453.1 166.9 453 168.2 453.3 169.3 454.1 170.4 455.3 170.4 456.5 170.1L481.3 155.1 477.8 169 466.7 175.4C465.7 176.2 465.7 177.4 466 178.6 466.7 179.6 468 179.7 468.7 179.5L476.1 174.8 473.7 185.1C473.5 186 474 187.5 475.2 187.6 476.5 187.6 477.6 187.3 477.7 186L480.2 175.8 484.8 183.2C485.5 184.2 486.8 184.3 487.5 184.1 488.2 183.5 488.7 182.5 488.5 181.7 488.5 181.7 488.4 181.3 488.4 181.3L481.9 170.3 485.4 156.4 500.4 181.2C501.1 182.2 502.4 182.3 503.2 182.1 503.8 181.5 504.4 180.5 504.2 179.7 504.2 179.7 504.1 179.3 504.1 179.3L486.8 151 493.9 122.3 515.2 142.8 515.6 176C515.5 177.3 516.6 178.2 517.8 177.9 519.1 177.9 520 176.8 519.7 175.7L519.2 146.7 529.6 156.6 529.9 169.4C529.9 170.7 531 171.6 532.1 171.3 533.4 171.3 534.3 170.2 534 169.1L534 160.3 541.5 167.7C542.1 168.4 543.8 168.3 544.4 167.7 545.1 167.1 545.3 166.3 545 165.5 544.9 165.1 544.8 164.7 544.3 164.4L536.8 157 545.5 157C546.8 157.1 547.7 156 547.4 154.8 547.4 154.8 547.3 154.4 547.3 154.4 547.1 153.7 546.1 153.1 545.2 153L532.4 153.3 522 143.4 551.1 143C552.3 143 553.3 141.9 552.9 140.8 552.9 140.8 552.8 140.4 552.8 140.4 552.6 139.6 551.6 139.1 550.7 138.9L517.5 139.2 496.3 118.7 524.7 110.6 553.9 126.7C554.9 127.3 556 127 556.6 126 557.1 125 556.8 123.8 555.8 123.3L530.5 108.9 544.3 104.9 555.2 111C556.2 111.5 557.3 111.2 557.9 110.2S558.1 108.1 557.1 107.5L549.7 103.4 559.7 100.5C560.8 100.2 561.4 99.2 561.1 98.1 560.7 96.9 559.7 96.4 558.6 96.7L548.6 99.5 552.7 92.1C553 91.6 553.3 91.1 553 90.4S552.3 89.3 551.8 89.1C550.8 88.5 549.7 88.8 549.1 89.8L543.1 100.7 529.3 104.7 543.5 78.9C543.8 78.5 544.1 78 543.9 77.2 543.7 76.8 543.1 76.1 542.6 75.9 541.7 75.3 540.5 75.7 539.9 76.6L523.8 105.8 495.3 114 502.5 85.3 530.8 68C531.5 67.4 532 66.4 531.8 65.7 531.8 65.7 531.7 65.3 531.7 65.3 531 64.2 529.7 64.2 528.9 64.4L504.1 79.4 507.6 65.5 518.7 59C519.3 58.4 519.9 57.4 519.7 56.7 519.7 56.7 519.5 56.3 519.5 56.3 518.8 55.2 517.6 55.2 516.8 55.4L509.4 60 511.8 49.7C511.7 49.4 512 48.9 511.9 48.5 511.7 47.7 511.1 47.1 510.2 46.9 508.9 46.8 507.8 47.2 507.7 48.4L505.3 58.7 500.6 51.3C499.9 50.3 498.7 50.2 497.9 50.4 496.8 51.1 496.8 52.4 497 53.2L503.5 64.2 500 78.1 485 53.3C484.3 52.2 483 52.2 482.2 52.4 481.4 53.9 481 55.3 481.7 56.3Z" fill="rgba(51, 121, 194, 0.58)"></path><path d="M1336.8 515.4L1346.8 513.7 1344.6 520.1C1344.3 520.8 1344.7 521.7 1345.6 522.2 1346.5 522.3 1347.4 521.9 1347.7 521.3L1350.7 512.9 1359.9 511.4 1353.7 528.4C1353.3 529.5 1353.7 530.4 1354.6 530.5 1355.5 531 1356.4 530.7 1356.7 529.6L1363.6 510.9 1371.9 509.3 1384.5 524.2 1382 531.3 1361.1 534.7C1360.8 534.9 1360.6 535.1 1360.3 535.3 1360.1 535.5 1359.8 536.2 1359.8 536.6 1359.9 537.8 1360.8 538.3 1361.7 537.9L1380.8 534.8 1377.6 543.4 1367.9 545.3C1367.7 545 1367.4 545.3 1367.2 545.5 1366.7 545.9 1366.4 546.5 1366.6 547.2 1366.7 547.9 1367.6 548.4 1368.5 548.5L1376.4 546.9 1372.5 557.7C1372.2 558.4 1372.6 559.3 1373.4 559.9 1374.3 559.9 1375.3 559.6 1375.6 558.9L1379.2 548.8 1383.5 553.9C1384.1 554.6 1385.3 554.5 1385.7 554.1 1386.5 553.5 1386.8 552.4 1386.2 551.6L1380.6 545 1383.9 536.4 1395.4 550.2C1396 550.9 1396.9 551 1397.6 550.4 1398.4 549.7 1398.5 548.8 1397.8 548.1L1385.1 532.9 1387.5 525.4 1406.9 522.1 1411.6 527.7 1404.8 546.9C1404.2 547.7 1404.8 548.9 1405.7 549 1406.6 549.5 1407.3 548.9 1407.8 548.1L1414.1 530.7 1420.1 537.8 1416.8 546.3C1416.6 547 1417.1 548.2 1417.8 548.5S1419.6 548.2 1420.2 547.3L1422.6 540.7 1429.8 549.3C1430.4 550 1431.5 549.9 1432.3 549.3 1432.8 548.8 1433.1 547.7 1432.5 547L1425.3 538.4 1432.4 537C1433.1 536.8 1433.8 536.2 1433.7 535.1 1433.5 534.4 1432.5 533.6 1431.8 533.8L1422.8 535.5 1416.8 528.4 1435 525.2C1436 524.8 1436.7 524.2 1436.6 523.1 1436.4 522.4 1435.3 521.6 1434.6 521.8L1414.3 525.5 1409.6 519.8 1416.2 501.3 1424 500.2 1436.8 515.3C1437.4 516.1 1438.3 516.2 1439 515.5 1439.8 514.9 1440.1 513.8 1439.5 513.1L1427.9 499.4 1436.9 497.6 1442.5 504.3C1443.1 505 1444 505.1 1444.8 504.5 1445.5 503.8 1445.6 502.9 1445 502.2L1440.6 497.1 1451.2 495.2C1451.9 495.1 1452.7 494 1452.5 493.3 1452.2 492.4 1451.5 491.6 1450.6 492L1439.5 493.8 1442.2 486.5C1442.3 485.6 1441.9 484.7 1441.3 484.4 1440.6 484.1 1439.9 484.3 1439.4 484.7 1439.4 484.7 1439.2 484.9 1439.1 485.3L1435.6 494.6 1426.6 496.3 1433 478C1433.5 477.1 1433.1 476.2 1432 475.9 1431.6 475.8 1431.1 475.8 1430.6 476.2 1430.4 476.4 1430.1 476.6 1429.9 476.8L1422.9 496.9 1415.6 498.1 1403 483.1 1405.9 475.2 1425.6 471.7C1426.7 471.6 1427.2 470.7 1426.9 469.8 1426.9 468.9 1426.1 468.3 1424.9 468.4L1407.2 471.7 1410.2 462.9 1419 461.3C1419.6 461.2 1420.2 460.3 1420.3 459.4 1419.9 458.5 1419.3 457.7 1418.3 458.1L1411.7 459.1 1415 449.6C1415.5 448.8 1414.9 448.1 1414 447.5 1413.6 447.5 1412.9 447.7 1412.4 448.1 1412.4 448.1 1412.1 448.3 1411.9 448.5L1408.3 458.6 1403.1 452.5C1402.7 452 1401.6 451.7 1400.9 452.3 1400.1 452.9 1400.3 454.1 1400.7 454.5L1407.1 462.1 1404 471 1391.5 456C1390.9 455.3 1389.7 455.4 1389 456S1388.2 457.6 1388.8 458.3L1402.6 474.7 1399.9 482 1380.6 485.3 1375.2 478.9 1382.3 459.6C1382.4 458.6 1382 457.7 1381.2 457.2 1380.7 457.1 1380 457.3 1379.5 457.7 1379.3 457.9 1379 458.1 1379 458.6L1372.7 476 1366.7 468.9 1369.8 460.1C1370.1 459.4 1369.7 458.5 1368.8 457.9 1367.9 457.9 1367 458.2 1366.7 458.9L1364.3 465.9 1357.7 458.1C1357.3 457.6 1355.9 457.5 1355.4 457.9 1354.7 458.5 1354.6 459.9 1355 460.4L1361.6 468.2 1354.5 469.2C1354.2 469.4 1354 469.6 1353.7 469.8 1353.2 470.2 1353 470.9 1352.9 471.3 1353.3 472.3 1354.1 472.8 1355 472.9L1364.1 471.1 1370 478.2 1351.8 481.4C1350.7 481.6 1350.1 482.4 1350.3 483.1 1350.4 484.3 1351.3 484.8 1352.2 484.9L1372.5 481.2 1377.9 487.6 1371.3 506.1 1363.6 507.5 1349.8 491C1349.2 490.3 1348.3 490.2 1347.6 490.8 1346.9 491.5 1346.8 492.4 1347.4 493.1L1360 508 1350.8 509.5 1344.4 501.9C1344 501.4 1342.6 501.3 1341.9 501.9 1341.1 502.6 1341.3 503.7 1341.7 504.2L1346.8 510.3 1336.2 512.1C1336 512.3 1336 512.3 1335.7 512.5 1335.2 512.9 1335 513.6 1334.9 514.1 1335.3 515 1336.2 515.5 1336.8 515.4ZM1380.3 490.5L1381.2 488.5 1383 488.2 1398.7 485.5 1400.5 485.2 1401.8 486.7 1411.9 498.7 1413.1 500.1 1412.5 501.9 1407.1 516.9 1406.5 518.6 1404.4 519.1 1389 521.7 1386.9 522.2 1385.7 520.7 1375.6 508.7 1374.3 507.2 1375.2 505.3 1380.3 490.5Z" fill="rgba(51, 121, 194, 0.58)"></path><path d="M1035.1 191.2L1024.7 184.2 1032.1 180.2C1032.9 179.9 1033.4 178.7 1033 177.5 1032.3 176.6 1031.1 176.2 1030.3 176.5L1020.4 181.6 1010.7 175.1 1030.9 164.9C1032.2 164.2 1032.6 163 1031.9 162.2 1031.5 161 1030.4 160.5 1029.1 161.2L1006.9 172.5 998 166.8 999.3 142.4 1007.5 138.1 1029.6 152.9C1030 152.9 1030.4 152.9 1030.8 152.9 1031.2 152.9 1032 152.6 1032.4 152.2 1033.3 151 1032.9 149.8 1031.7 149.4L1011.6 135.9 1021.9 130.8 1032.4 137.4C1032.4 137.8 1032.8 137.8 1033.2 137.8 1034 137.9 1034.8 137.5 1035.2 136.7 1035.7 136 1035.3 134.7 1034.6 133.9L1026.1 128.6 1038.8 122.1C1039.6 121.7 1040.1 120.6 1039.8 119.4 1039 118.5 1037.8 118 1037 118.4L1025.1 124.6 1025.5 116.2C1025.6 115 1024.4 114.1 1023.6 114.1 1022.4 114 1021.2 114.7 1021.1 115.9L1020.5 126.7 1010.3 131.8 1011.5 109.4C1011.5 108.2 1010.8 107.4 1009.6 107.3 1008.4 107.3 1007.5 108 1007.5 109.2L1006.1 134 997.5 138.7 977 125.2 977.5 116 1000.1 104.4C1001.3 104.1 1001.8 102.5 1001.1 101.7 1000.7 100.4 999.5 100.4 998.3 100.7L977.7 111.2 978.3 99.6 988.6 94.6C989.4 94.2 989.9 92.6 989.6 91.8S987.6 90.5 986.4 90.9L978.6 94.8 979.3 80.9C979.4 79.7 978.3 78.8 977.1 78.7 976.3 78.7 975 79.4 974.9 80.6L974.2 94.6 966.4 89.8C965.7 89.3 964.5 89.3 963.6 90.4 963.2 91.2 963.5 92.8 964.3 93.3L973.9 99.4 973.3 111 954 98.3C952.8 97.9 951.6 97.8 950.7 99 950.3 99.7 950.6 101.3 951.4 101.8L973.1 115.8 972.6 125 950.7 136.2 942.6 130.6 944 105.8C944 104.6 943.3 103.8 942.1 103.7 940.9 103.6 939.6 104.4 939.6 105.6L938.4 127.9 928.7 121.8 929.3 111C929.3 109.8 928.6 109 927.4 108.9 926.2 108.9 925.3 109.6 925.3 110.8L924.8 119.2 913.6 111.8C912.8 111.3 911.2 111.7 910.8 112.4 910.3 113.6 910.2 114.8 911.4 115.3L923 123.1 914.4 127.4C913.5 128.2 913 129.4 913.4 130.2 913.8 131 914.5 131.5 915.3 131.5 915.3 131.5 915.7 131.5 916.2 131.1L927.3 125.7 937 131.9 915.5 143.1C914.3 143.5 913.8 144.6 914.6 145.9 914.9 146.3 915.3 146.7 916.1 146.8 916.5 146.8 916.9 146.8 917.3 146.8L940.8 134.5 948.5 139.7 947.2 164.1 937.8 168.8 916.9 155.2C915.7 154.4 914.5 154.7 914 155.9 913.2 156.6 913.5 157.8 914.7 158.7L933.7 170.9 923.3 176.4 914.1 170.3C913.3 169.8 912.1 170.2 911.2 170.9 910.8 172.1 910.7 173.3 911.9 173.8L918.8 178.6 907.7 184.4C906.5 184.7 906.4 185.9 906.7 187.1 907.1 187.5 907.9 188 908.7 188 908.7 188 909.1 188.1 909.5 188.1L921.4 181.9 920.9 191.9C920.9 192.7 921.6 193.9 922.8 194 924 194.1 924.9 192.9 924.9 192.1L925.6 179.7 935.9 174.3 934.6 198.6C934.5 199.8 935.7 200.7 936.9 200.8S938.9 200.1 939 198.9L940.4 172.1 949 167.8 969.6 181.3 969 191.7 945.9 203.2C945.1 204 944.6 205.2 945 206.4 945.3 206.8 946.1 207.3 946.9 207.3 947.3 207.3 947.7 207.3 948.1 207L968.7 196.5 968.1 208 957.8 213.5C957 213.9 956.5 215 956.9 216.2 957.6 217.1 958.8 217.6 959.6 217.2L967.9 212.8 967.2 225.6C967.1 226.4 968.3 227.7 969.1 227.7 970.3 227.8 971.5 226.7 971.6 225.9L972.3 213.1 979.6 218.3C980 218.3 980.4 218.3 980.8 218.3 981.6 218.4 982.4 218 982.8 217.6 983.3 216.5 983 215.2 982.2 214.4L972.5 208.3 973.1 196.7 992.5 209.3C993.6 210.2 994.9 209.9 995.3 209.1 996.2 207.9 995.8 206.7 995.1 205.9L973.4 191.9 973.9 181.5 995.8 170.3 1003.9 175.5 1002.5 202.3C1002.4 203.5 1003.2 204.3 1004.4 204.4 1005.6 204.4 1006.4 203.7 1006.5 202.5L1007.8 178.1 1017.4 184.6 1016.8 197C1016.7 197.8 1017.9 199.1 1019.1 199.2 1020.3 199.2 1021.1 198.1 1021.2 197.3L1021.7 187.3 1032.9 194.7C1033.3 194.7 1033.3 194.7 1033.7 194.7 1034.5 194.8 1035.3 194.4 1035.8 194 1036.2 192.9 1035.9 191.6 1035.1 191.2ZM974.2 176.7L971.7 177.8 969.8 176.5 953.2 165.6 951.2 164.3 951.4 161.9 952.4 142.3 952.5 139.9 954.6 138.8 972.3 129.8 974.4 128.7 976.7 130 992.9 140.9 995.3 142.2 995.2 144.6 994.1 164.2 994 166.6 991.5 167.6 974.2 176.7Z" fill="rgba(51, 121, 194, 0.58)"></path></g><defs><mask id="SvgjsMask1096"><rect width="1440" height="560" fill="#ffffff"></rect></mask><filter id="SvgjsFilter1097"><feGaussianBlur stdDeviation="1"></feGaussianBlur></filter></defs></svg>